<?xml version="1.0" encoding="utf-8"?><svg xmlns="http://www.w3.org/2000/svg" xmlns:xlink="http://www.w3.org/1999/xlink"><symbol viewBox="0 0 54 54" id="Icon" xmlns="http://www.w3.org/2000/svg"><circle cx="27" cy="27" r="27" fill-opacity=".02"/><circle cx="27" cy="27" r="26.5"/><path d="M27.375 24.79a2.534 2.534 0 0 0-2.532 2.531 2.534 2.534 0 0 0 2.532 2.532 2.534 2.534 0 0 0 2.532-2.532 2.534 2.534 0 0 0-2.532-2.53zm0 3.616a1.085 1.085 0 1 1 0-2.17 1.085 1.085 0 0 1 0 2.17zm8.53-1.085c.703-.916 1.207-1.836 1.443-2.712.272-1.022.178-1.962-.274-2.72-.824-1.379-2.729-1.942-5.131-1.737-1.051-2.693-2.69-4.402-4.568-4.402-1.878 0-3.517 1.709-4.567 4.401-2.404-.205-4.307.359-5.13 1.738-.454.758-.548 1.698-.276 2.72.235.876.74 1.796 1.443 2.712-.703.917-1.208 1.836-1.443 2.712-.272 1.022-.178 1.963.274 2.721.717 1.198 2.242 1.786 4.206 1.786.288 0 .61-.052.915-.077 1.05 2.709 2.694 4.43 4.578 4.43 1.884 0 3.527-1.721 4.577-4.43.305.025.628.077.916.077 1.962 0 3.49-.588 4.204-1.786.454-.758.549-1.699.276-2.72-.236-.877-.74-1.796-1.443-2.713zm-17.104-3.086c-.174-.644-.133-1.184.119-1.604.416-.7 1.479-1.084 2.944-1.084.15 0 .313.012.472.02-.25.891-.442 1.86-.568 2.887a17.939 17.939 0 0 0-1.958 1.738c-.485-.673-.843-1.337-1.01-1.957zm2.808 3.933a14.98 14.98 0 0 1-.865-.847c.267-.284.555-.566.865-.846-.01.28-.02.56-.02.846 0 .287.01.566.02.847zm-2.69 3.844c-.25-.42-.292-.96-.118-1.604.167-.62.525-1.284 1.009-1.957a17.985 17.985 0 0 0 1.958 1.738c.126 1.027.317 1.997.568 2.89-1.705.088-2.956-.295-3.418-1.067zm12.42-8.71a22.965 22.965 0 0 0-1.167-.703 23.52 23.52 0 0 0-.872-.459 15.254 15.254 0 0 1 1.653-.398c.154.513.283 1.034.386 1.56zm-3.964-6.106c1.088 0 2.238 1.177 3.083 3.163a18.35 18.35 0 0 0-3.083.92 18.363 18.363 0 0 0-3.083-.92c.845-1.987 1.995-3.163 3.083-3.163zm-3.579 4.546c.527.096 1.078.225 1.653.398-.29.146-.58.296-.871.459-.403.224-.788.462-1.167.702.103-.525.231-1.046.385-1.559zm-.385 9.6c.379.24.764.477 1.167.702.304.17.605.293.908.446a15.43 15.43 0 0 1-1.69.412 16.444 16.444 0 0 1-.385-1.56zm3.964 6.104c-1.092 0-2.247-1.185-3.093-3.185a18.226 18.226 0 0 0 3.093-.919 18.15 18.15 0 0 0 3.093.919c-.846 2-2.001 3.185-3.093 3.185zm3.578-4.544a15.62 15.62 0 0 1-1.688-.412c.303-.153.604-.276.907-.446.404-.224.789-.461 1.168-.702-.109.552-.24 1.07-.387 1.56zm.665-3.498c-.668.484-1.383.95-2.15 1.378a21.46 21.46 0 0 1-2.092 1.021 21.552 21.552 0 0 1-2.095-1.021 21.457 21.457 0 0 1-2.149-1.378 22.148 22.148 0 0 1 0-4.165 21.351 21.351 0 0 1 4.242-2.403 21.43 21.43 0 0 1 4.243 2.403 22.282 22.282 0 0 1 0 4.165zm1.268-7.858c1.465 0 2.528.385 2.946 1.084.25.42.291.96.117 1.605-.166.62-.524 1.283-1.008 1.957a17.965 17.965 0 0 0-1.959-1.738 19.5 19.5 0 0 0-.568-2.888c.159-.008.322-.02.472-.02zm.255 4.929c.31.28.597.562.864.846-.267.285-.555.567-.864.847.01-.28.02-.56.02-.847 0-.286-.01-.566-.02-.846zm2.69 5.537c-.46.772-1.712 1.155-3.418 1.066.252-.893.443-1.862.57-2.89a17.939 17.939 0 0 0 1.957-1.737c.484.673.843 1.337 1.009 1.957.174.644.133 1.184-.119 1.604z"/></symbol><symbol viewBox="0 0 21 46" id="arrow-down" xmlns="http://www.w3.org/2000/svg"><path fill-rule="evenodd" clip-rule="evenodd" d="M19.94 12l.05-1.047a9.5 9.5 0 1 0-18.979 0L1.06 12H1v23.727l.01.226a9.5 9.5 0 0 0 18.98 0l.01-.226V12h-.06zM21 36h-.012c-.26 5.567-4.857 10-10.488 10C4.869 46 .273 41.567.012 36H0V11h.012a10.677 10.677 0 0 1 0-1C.272 4.433 4.869 0 10.5 0c5.631 0 10.227 4.433 10.488 10a10.633 10.633 0 0 1 0 1H21v25z" fill-opacity=".5"/><path fill-rule="evenodd" clip-rule="evenodd" d="M14.535 34.172l-3.181 3.182a.5.5 0 0 1-.708 0l-3.182-3.182a.5.5 0 1 1 .707-.707l2.329 2.328V10h1v25.793l2.328-2.328a.5.5 0 1 1 .707.707z"/></symbol><symbol viewBox="0 0 12 8" id="arrow-left" xmlns="http://www.w3.org/2000/svg"><path d="M.396 3.646a.5.5 0 0 0 0 .708l3.182 3.182a.5.5 0 1 0 .708-.708L1.457 4l2.829-2.828a.5.5 0 1 0-.708-.708L.396 3.646zM11.25 3.5H.75v1h10.5v-1z"/></symbol><symbol viewBox="0 0 12 8" id="arrow-right" xmlns="http://www.w3.org/2000/svg"><path d="M11.604 4.354a.5.5 0 0 0 0-.708L8.422.464a.5.5 0 1 0-.708.708L10.543 4 7.714 6.828a.5.5 0 1 0 .708.708l3.182-3.182zM.75 4.5h10.5v-1H.75v1z"/></symbol><symbol viewBox="0 0 166 30" id="codepen" xmlns="http://www.w3.org/2000/svg"><path d="M10.416 7.309c1.86 0 3.565.669 4.89 1.775l1.802-2.137a10.397 10.397 0 0 0-6.692-2.43C4.673 4.518 0 9.168 0 14.884 0 20.6 4.673 25.25 10.417 25.25c2.546 0 4.88-.915 6.69-2.43l-1.8-2.137a7.6 7.6 0 0 1-4.89 1.776c-4.197 0-7.612-3.398-7.612-7.575 0-4.176 3.415-7.575 7.612-7.574h-.001zm57.658-2.193h-5.608a1.402 1.402 0 0 0-1.402 1.395v16.744c0 .37.148.725.41.986.264.262.62.41.992.41h5.608c5.413 0 9.815-4.382 9.815-9.768 0-5.386-4.402-9.768-9.816-9.767h.001zm0 16.744h-4.206V7.907h4.206c3.866 0 7.01 3.13 7.01 6.977 0 3.849-3.144 6.976-7.011 6.976h.001zM85.481 6.512v16.744c0 .37.148.724.411.986.263.261.62.409.991.409h11.685v-2.79H88.286v-5.582h6.543v-2.79h-6.543V7.906h10.282v-2.79H86.883a1.405 1.405 0 0 0-1.294.86c-.07.17-.106.351-.106.534h-.002zm42.443 0v16.744c0 .37.148.724.411.986.263.261.619.409.991.409h11.684v-2.79h-10.282v-5.582h6.543v-2.79h-6.543V7.906h10.282v-2.79h-11.683a1.404 1.404 0 0 0-1.296.86c-.07.17-.107.35-.106.534h-.001zM114.58 5.116h-6.076c-.372 0-.728.147-.991.409a1.391 1.391 0 0 0-.411.986v18.14h2.805v-8.372h4.674c3.092 0 5.608-2.504 5.608-5.581 0-3.078-2.516-5.583-5.61-5.582h.001zm0 8.372h-4.674v-5.58h4.674a2.8 2.8 0 0 1 2.804 2.79 2.8 2.8 0 0 1-2.805 2.79h.001zm48.352-8.372v14.286L151.39 5.618a1.399 1.399 0 0 0-1.554-.419 1.394 1.394 0 0 0-.925 1.312v18.14h2.804V10.366l11.542 13.783a1.399 1.399 0 0 0 1.553.418 1.397 1.397 0 0 0 .925-1.312V5.115h-2.803v.001zm-109.834 5.01c-.007-.036-.013-.072-.023-.107l-.02-.062a1.277 1.277 0 0 0-.033-.093c-.008-.022-.019-.042-.028-.063a1.129 1.129 0 0 0-.044-.084c-.011-.02-.024-.04-.037-.06a1.288 1.288 0 0 0-.162-.202c-.017-.016-.033-.034-.052-.05a1.06 1.06 0 0 0-.072-.06c-.02-.015-.038-.03-.059-.044l-.021-.016-13.67-9.07a1.288 1.288 0 0 0-1.426 0l-13.67 9.07c-.008.004-.015.01-.022.015l-.058.044a.998.998 0 0 0-.125.11 1.15 1.15 0 0 0-.162.204l-.037.059c-.016.028-.03.056-.043.084l-.029.062c-.012.03-.023.062-.033.093l-.02.06a1.19 1.19 0 0 0-.022.108c-.004.018-.009.037-.01.055a1.28 1.28 0 0 0-.012.167v9.072c0 .056.004.113.012.167.003.02.008.036.012.056.006.036.012.072.024.108l.02.062c.01.032.02.064.033.094.008.02.02.04.028.06.036.078.082.152.137.22.014.02.028.036.044.055.02.024.04.048.064.07.017.016.033.035.053.048l.072.06c.02.017.04.029.057.044.007.004.012.012.02.016l13.667 9.074a1.29 1.29 0 0 0 1.426 0l13.671-9.07c.008-.004.014-.01.021-.015l.059-.044.073-.06.051-.05a1.151 1.151 0 0 0 .198-.262.86.86 0 0 0 .045-.085 1.329 1.329 0 0 0 .062-.155l.02-.062a.984.984 0 0 0 .022-.108c.004-.018.009-.036.01-.055.008-.055.012-.11.012-.167v-9.07c0-.056-.004-.112-.012-.167-.003-.02-.009-.036-.013-.056h.002zM38.164 17.91l-4.546-3.026 4.546-3.026 4.546 3.026-4.546 3.026zm-1.285-8.274l-5.573 3.709-4.498-2.995 10.071-6.68v5.967zm-7.885 5.247l-3.215 2.14v-4.28l3.216 2.14zm2.312 1.54l5.573 3.71v5.966l-10.071-6.682 4.498-2.995v.001zm8.143 3.709l5.573-3.71 4.498 2.995-10.07 6.681v-5.966zm7.885-5.248l3.215-2.14v4.28l-3.215-2.14zm-2.312-1.539l-5.573-3.709V3.669l10.072 6.681-4.499 2.995z"/></symbol><symbol viewBox="0 0 166 39" id="dribbble" xmlns="http://www.w3.org/2000/svg"><path d="M50.7 15.576c1.899 0 3.438-1.471 3.438-3.285 0-1.815-1.54-3.285-3.438-3.285-1.9 0-3.44 1.47-3.44 3.285 0 1.814 1.54 3.285 3.44 3.285zm113.485 11.223c-.523-.351-.927-.41-1.262.273-5.776 11.946-15.508 5.985-14.542 6.51 2.159-.944 7.837-5.292 6.979-11.297-.521-3.67-3.819-5.298-7.32-4.715-6.11 1.018-8.358 7.312-7.214 12.885.2.957.558 1.746.916 2.52-6.905 5.362-9.648-4.802-9.959-6.016-.012-.065 5.332-4.32 6.818-14.456 1.558-10.625-1.991-12.56-5.62-12.499-6.715.112-8.529 13.511-6.092 24.679-.204.05-1.154.553-2.681.61-1.098-3.302-5.793-6.196-7.022-5.08-3.075 2.789.746 8.243 3.434 8.67-1.615 9.5-11.714 7.148-9.834-4.754 3.289-5.833 5.79-14.506 5.344-19.742-.158-1.853-1.593-4.337-4.839-4.214-6.242.236-6.921 13.64-6.189 23.152-.036-.234-.384 1.156-2.942 1.847-.605-3.207-6.013-6.427-7.286-4.88-2.383 2.898 1.747 8.063 3.703 8.424-1.615 9.5-11.714 7.146-9.834-4.755 3.289-5.833 5.79-14.506 5.344-19.742-.159-1.854-1.594-4.337-4.84-4.215-6.242.237-6.92 13.64-6.189 23.153-.036-.238-.392 1.198-3.054 1.877-.09-4.161-5.517-6.07-6.82-4.742-2.325 2.367.532 7.224 3.174 8.424-1.615 9.5-11.715 7.146-9.835-4.755 3.289-5.833 5.79-14.506 5.344-19.742-.158-1.854-1.593-4.337-4.839-4.215-6.242.237-6.744 14.314-6.013 23.826-2.056 8.413-8.95 18.92-8.055-2.127.089-1.476.185-2.037-.586-2.59-.577-.43-1.89-.222-2.608-.205-.873.033-1.091.52-1.284 1.258-.45 1.902-.53 3.747-.594 6.264-.042 1.178-.141 1.727-.616 3.333-.474 1.605-3.18 4.539-4.66 4.048-2.055-.675-1.381-6.214-.996-10.02.32-3.009-.707-4.36-3.34-4.85-1.54-.307-2.476-.26-4.081-.743-1.518-.457-1.861-3.199-5.098-2.285-1.77.5-.633 4.083-1.058 6.738-2.092 13.062-6.445 13.421-8.465 7.076C28.67 8.453 22.205.066 18.422.066c-3.941 0-8.446 2.593-6.539 19.18-.927-.258-1.212-.397-2.228-.397C3.912 18.849 0 23.282 0 28.752c0 5.469 3.913 9.903 9.655 9.903 3.39 0 5.77-1.473 7.573-3.75 1.176 1.608 2.609 3.775 5.228 3.677C30.262 38.292 32.532 23 32.8 22.146c.835.122 1.624.355 2.395.478 1.284.184 1.377.67 1.348 1.903-.34 10.401 1.67 14.043 6.229 14.043 2.54 0 4.803-2.383 6.363-4.088 1.165 2.296 3.02 4.018 5.51 4.087 6.034.144 8.344-9.04 8.134-7.832-.165.948 1.957 7.78 8.169 7.806 7.694.03 9.125-8.05 9.295-9.404.022-.27.03-.241 0 0l-.006.082c2.443-.434 3.703-1.685 3.703-1.685s1.962 11.132 9.227 11.007c7.545-.13 8.968-7.435 9.155-8.86.024-.338.039-.298 0 0l-.003.042c2.901-1.008 3.665-2.02 3.665-2.02s1.559 10.91 9.227 11.006c6.833.085 9.365-6.597 9.38-9.395 1.153.012 3.285-.653 3.235-.69 0 0 2.503 9.539 9.492 10.029 3.282.23 5.744-1.764 7.147-2.673 3.298 2.55 14.28 5.809 21.215-5.42.979-1.61-1.126-3.514-1.495-3.763zM9.378 34.951c-3.35 0-5.499-2.959-5.499-6.149s1.973-6.148 5.323-6.148c1.508 0 2.347.158 3.52 1.133.214.802.817 2.65 1.11 3.49.394 1.123.862 2.079 1.334 3.12-.674 2.669-2.884 4.554-5.788 4.554zm8.165-11.07c-.14-.212-.11-.082-.266-.282-.614-1.596-1.798-5.157-1.935-9.202-.155-4.576.644-9.94 2.998-9.94 1.595 0 3.29 10.87-.797 19.424zm47.176-4.768c-.378-2.715-.398-14.82 2.645-14.487 1.68.65-1.066 12.073-2.645 14.487zm22.22 0c-.379-2.715-.398-14.82 2.645-14.487 1.68.65-1.066 12.073-2.646 14.487zm22.043.169c-.379-2.716-.398-14.821 2.644-14.488 1.681.65-1.065 12.073-2.644 14.488zm24.335-15.365c2.782-.275 2.668 11.327-2.917 18.653-.72-2.648-1.824-17.744 2.917-18.653zm11.694 24.967c-.894-4.31 1.415-7.142 3.795-7.453.832-.126 2.038.388 2.278 1.35.396 1.814-.057 4.504-5.384 7.917.007.03-.49-.854-.689-1.814z"/></symbol><symbol viewBox="0 0 12 9" id="email" xmlns="http://www.w3.org/2000/svg"><path d="M10.875 0h-9.75C.504 0 0 .504 0 1.125v6.75C0 8.496.504 9 1.125 9h9.75C11.496 9 12 8.496 12 7.875v-6.75C12 .504 11.496 0 10.875 0zm-9.75.75h9.75c.206 0 .375.169.375.375v.97c-.513.434-1.247 1.032-3.53 2.843C7.324 5.252 6.544 6.01 6 6c-.544.01-1.327-.748-1.72-1.062C1.997 3.127 1.263 2.528.75 2.095v-.97C.75.919.919.75 1.125.75zm9.75 7.5h-9.75a.376.376 0 0 1-.375-.375V3.07c.534.439 1.378 1.116 3.063 2.454.48.385 1.33 1.23 2.187 1.226.853.007 1.695-.832 2.187-1.226A277.865 277.865 0 0 0 11.25 3.07v4.805a.376.376 0 0 1-.375.375z"/></symbol><symbol viewBox="0 0 18 18" id="facebook" xmlns="http://www.w3.org/2000/svg"><path opacity=".9" d="M18 .992v16.012c0 .55-.446.992-.992.992h-4.589v-6.967h2.339l.35-2.716h-2.693V6.577c0-.787.217-1.322 1.346-1.322H15.2v-2.43a19.082 19.082 0 0 0-2.098-.109c-2.073 0-3.495 1.266-3.495 3.592v2.005H7.26v2.716h2.347V18H.992A.995.995 0 0 1 0 17.008V.992C0 .446.446 0 .992 0h16.012c.55 0 .996.446.996.992z"/></symbol><symbol viewBox="0 0 18 18" id="inst" xmlns="http://www.w3.org/2000/svg"><path opacity=".9" d="M9.002 4.384a4.607 4.607 0 0 0-4.614 4.614 4.607 4.607 0 0 0 4.614 4.614 4.607 4.607 0 0 0 4.614-4.614 4.607 4.607 0 0 0-4.614-4.614zm0 7.614c-1.65 0-3-1.346-3-3s1.346-3 3-3 3 1.346 3 3-1.35 3-3 3zm5.879-7.803c0 .599-.482 1.076-1.076 1.076a1.076 1.076 0 1 1 1.076-1.076zm3.056 1.093c-.069-1.442-.398-2.719-1.454-3.771C15.431.465 14.154.136 12.713.063c-1.486-.084-5.94-.084-7.425 0-1.438.069-2.715.398-3.771 1.45S.136 3.842.063 5.283c-.084 1.486-.084 5.94 0 7.425.069 1.442.398 2.719 1.454 3.771s2.329 1.381 3.77 1.454c1.486.084 5.94.084 7.425 0 1.442-.069 2.719-.398 3.771-1.454 1.052-1.052 1.381-2.329 1.454-3.77.084-1.486.084-5.936 0-7.421zm-1.92 9.015a3.037 3.037 0 0 1-1.71 1.71c-1.185.47-3.996.362-5.305.362-1.31 0-4.124.104-5.305-.362a3.037 3.037 0 0 1-1.71-1.71c-.47-1.185-.362-3.996-.362-5.305 0-1.31-.104-4.124.362-5.305a3.037 3.037 0 0 1 1.71-1.71c1.185-.47 3.996-.362 5.305-.362 1.31 0 4.124-.104 5.305.362.787.313 1.393.92 1.71 1.71.47 1.185.362 3.996.362 5.305 0 1.31.108 4.124-.362 5.305z"/></symbol><symbol viewBox="0 0 18 15" id="medium" xmlns="http://www.w3.org/2000/svg"><path opacity=".9" d="M2.132 2.914a.703.703 0 0 0-.227-.588L.227.3V0h5.217l4.034 8.846L13.025 0H18v.301l-1.436 1.377a.419.419 0 0 0-.16.402v10.122a.419.419 0 0 0 .16.402l1.402 1.377v.301h-7.059v-.301l1.455-1.41c.142-.142.142-.187.142-.402v-8.18L8.459 14.256h-.547L3.208 3.99v6.881a.94.94 0 0 0 .26.789l1.89 2.292v.302H0v-.298l1.89-2.296a.907.907 0 0 0 .242-.789V2.914z"/></symbol><symbol viewBox="0 0 18 29" id="phone" xmlns="http://www.w3.org/2000/svg"><path d="M12.6 5.4v13.5H5.4V5.4h7.2zM15.3 0H2.7A2.7 2.7 0 0 0 0 2.7v23.4a2.7 2.7 0 0 0 2.7 2.7h12.6a2.7 2.7 0 0 0 2.7-2.7V2.7A2.7 2.7 0 0 0 15.3 0zM2.7 27a.903.903 0 0 1-.9-.9V2.7c0-.495.405-.9.9-.9h12.6c.495 0 .9.405.9.9v23.4c0 .495-.405.9-.9.9H2.7zM13.725 3.6h-9.45a.677.677 0 0 0-.675.675v15.75c0 .371.304.675.675.675h9.45a.677.677 0 0 0 .675-.675V4.275a.677.677 0 0 0-.675-.675zm-2.7 19.8h-4.05a.677.677 0 0 0-.675.675v.45c0 .371.304.675.675.675h4.05a.677.677 0 0 0 .675-.675v-.45a.677.677 0 0 0-.675-.675z"/></symbol><symbol viewBox="0 0 54 54" id="service" xmlns="http://www.w3.org/2000/svg"><circle cx="27" cy="27" r="26.5"/><path d="M27.125 24.04a2.534 2.534 0 0 0-2.532 2.531 2.534 2.534 0 0 0 2.532 2.532 2.534 2.534 0 0 0 2.532-2.532 2.534 2.534 0 0 0-2.532-2.53zm0 3.616a1.085 1.085 0 1 1 0-2.17 1.085 1.085 0 0 1 0 2.17zm8.53-1.085c.703-.916 1.207-1.836 1.443-2.712.272-1.022.178-1.962-.274-2.72-.824-1.379-2.729-1.942-5.131-1.737C30.642 16.709 29.002 15 27.124 15c-1.878 0-3.517 1.709-4.567 4.401-2.404-.205-4.307.359-5.13 1.738-.454.758-.548 1.698-.276 2.72.235.876.74 1.796 1.443 2.712-.703.917-1.208 1.836-1.443 2.712-.272 1.022-.178 1.963.274 2.721.717 1.198 2.242 1.786 4.206 1.786.288 0 .61-.052.915-.077 1.05 2.709 2.694 4.43 4.578 4.43 1.884 0 3.527-1.721 4.577-4.43.305.025.628.077.916.077 1.962 0 3.49-.588 4.204-1.786.454-.758.549-1.699.276-2.72-.236-.877-.74-1.796-1.443-2.713zm-17.104-3.086c-.174-.644-.133-1.184.119-1.604.416-.7 1.479-1.084 2.944-1.084.15 0 .313.012.472.02-.25.891-.442 1.86-.568 2.887a17.939 17.939 0 0 0-1.958 1.738c-.485-.673-.843-1.337-1.01-1.957zm2.808 3.933a14.98 14.98 0 0 1-.865-.847c.267-.284.555-.566.865-.846-.01.28-.02.56-.02.846 0 .287.01.566.02.847zm-2.69 3.844c-.25-.42-.292-.96-.118-1.604.167-.62.525-1.284 1.009-1.957a17.985 17.985 0 0 0 1.958 1.738c.126 1.027.317 1.997.568 2.89-1.705.088-2.956-.295-3.418-1.067zm12.42-8.71a22.965 22.965 0 0 0-1.167-.703 23.52 23.52 0 0 0-.872-.459 15.254 15.254 0 0 1 1.653-.398c.154.513.283 1.034.386 1.56zm-3.964-6.106c1.088 0 2.238 1.177 3.083 3.163a18.35 18.35 0 0 0-3.083.92 18.363 18.363 0 0 0-3.083-.92c.845-1.987 1.995-3.163 3.083-3.163zm-3.579 4.546c.527.096 1.078.225 1.653.398-.29.146-.58.296-.871.459-.403.224-.788.462-1.167.702.103-.525.435-1.509.589-2.022l-.204.463zm-.385 9.6c.379.24.764.477 1.167.702.304.17.605.293.908.446a15.43 15.43 0 0 1-1.69.412 16.444 16.444 0 0 1-.385-1.56zm3.964 6.104c-1.092 0-2.247-1.185-3.093-3.185a18.226 18.226 0 0 0 3.093-.919 18.15 18.15 0 0 0 3.093.919c-.846 2-2.001 3.185-3.093 3.185zm3.578-4.544a15.62 15.62 0 0 1-1.688-.412c.303-.153.604-.276.907-.446.404-.224.789-.462 1.168-.702-.109.552-.24 1.07-.387 1.56zm.665-3.498c-.668.484-1.383.95-2.15 1.378a21.46 21.46 0 0 1-2.092 1.021 21.552 21.552 0 0 1-2.095-1.021 21.457 21.457 0 0 1-2.149-1.378 22.148 22.148 0 0 1 0-4.165 21.351 21.351 0 0 1 4.242-2.403 21.43 21.43 0 0 1 4.243 2.403 22.282 22.282 0 0 1 0 4.165zm1.268-7.858c1.465 0 2.528.385 2.946 1.084.25.42.291.96.117 1.605-.166.62-.524 1.283-1.008 1.957a17.965 17.965 0 0 0-1.959-1.738 19.5 19.5 0 0 0-.568-2.888c.159-.008.322-.02.472-.02zm.255 4.929c.31.28.597.562.864.846-.267.285-.555.567-.864.847.01-.28.02-.56.02-.847 0-.286-.01-.566-.02-.846zm2.69 5.537c-.46.772-1.712 1.155-3.418 1.066.252-.893.443-1.862.57-2.89a17.939 17.939 0 0 0 1.957-1.737c.484.673.843 1.337 1.009 1.957.174.644.133 1.184-.119 1.604z"/></symbol><symbol viewBox="0 0 18 15" id="twitter" xmlns="http://www.w3.org/2000/svg"><path opacity=".9" d="M16.15 3.643c.011.16.011.32.011.48C16.161 9 12.45 14.62 5.665 14.62c-2.09 0-4.032-.605-5.665-1.656.297.035.582.046.89.046a7.389 7.389 0 0 0 4.58-1.576 3.696 3.696 0 0 1-3.448-2.559c.228.035.456.057.696.057.332 0 .663-.045.971-.125a3.69 3.69 0 0 1-2.958-3.62V5.14a3.715 3.715 0 0 0 1.667.468A3.687 3.687 0 0 1 .754 2.536c0-.686.182-1.314.502-1.862a10.486 10.486 0 0 0 7.607 3.86 4.164 4.164 0 0 1-.091-.845A3.687 3.687 0 0 1 12.46 0a3.68 3.68 0 0 1 2.695 1.165 7.264 7.264 0 0 0 2.341-.89 3.68 3.68 0 0 1-1.621 2.032A7.396 7.396 0 0 0 18 1.737a7.932 7.932 0 0 1-1.85 1.906z"/></symbol><symbol viewBox="0 0 26 18" id="youtube" xmlns="http://www.w3.org/2000/svg"><path opacity=".9" d="M25.065 2.816A3.217 3.217 0 0 0 22.802.538C20.805 0 12.8 0 12.8 0S4.795 0 2.798.538A3.217 3.217 0 0 0 .535 2.816C0 4.826 0 9.018 0 9.018s0 4.193.535 6.202c.294 1.109 1.162 1.945 2.263 2.242C4.795 18 12.8 18 12.8 18s8.005 0 10.002-.538c1.101-.297 1.969-1.133 2.263-2.242.535-2.01.535-6.202.535-6.202s0-4.192-.535-6.202zM10.182 12.825V5.212l6.69 3.806-6.69 3.807z"/></symbol></svg>